<?xml version="1.0" encoding="UTF-8" standalone="no" ?>
<!DOCTYPE svg PUBLIC "-//W3C//DTD SVG 1.1//EN" "http://www.w3.org/Graphics/SVG/1.1/DTD/svg11.dtd">
<svg xmlns="http://www.w3.org/2000/svg" xmlns:xlink="http://www.w3.org/1999/xlink" version="1.1" width="500" height="500" viewBox="0 0 500 500" xml:space="preserve">
<desc>Created with Fabric.js 4.6.0</desc>
<defs>
</defs>
<g transform="matrix(-0.89 -0.45 0.45 -0.89 129.42 280.53)" id="etgveiIvFLs1F7dVGNU91"  >
<path style="stroke: rgb(67,228,170); stroke-width: 0; stroke-dasharray: none; stroke-linecap: butt; stroke-dashoffset: 0; stroke-linejoin: miter; stroke-miterlimit: 4; fill: rgb(0,0,0); fill-rule: nonzero; opacity: 1;" vector-effect="non-scaling-stroke"  transform=" translate(-75, -15.86)" d="M 0 15.52775 C 0 6.95201 6.95201 0 15.52775 0 L 134.47225 0 L 134.47225 0 C 143.04799 0 150 6.95201 150 15.52775 L 150 16.18654 L 150 16.18654 C 150 24.76228 143.04799 31.71429 134.47225 31.71429 L 15.527749999999997 31.71429 L 15.527749999999997 31.71429 C 6.952009999999998 31.71429 -1.7763568394002505e-15 24.762279999999997 -1.7763568394002505e-15 16.18654 z" stroke-linecap="round" />
</g>
<g transform="matrix(-0.89 -0.45 0.45 -0.89 129.42 348.42)" id="Cu6N87PO7OR1IvPaqCMnE"  >
<path style="stroke: rgb(67,228,170); stroke-width: 0; stroke-dasharray: none; stroke-linecap: butt; stroke-dashoffset: 0; stroke-linejoin: miter; stroke-miterlimit: 4; fill: rgb(0,0,0); fill-rule: nonzero; opacity: 1;" vector-effect="non-scaling-stroke"  transform=" translate(-75, -15.86)" d="M 0 15.52781 C 0 6.95204 6.95204 0 15.52781 0 L 134.47218999999998 0 L 134.47218999999998 0 C 143.04796 0 149.99999999999997 6.95204 149.99999999999997 15.52781 L 149.99999999999997 16.18648 L 149.99999999999997 16.18648 C 149.99999999999997 24.76225 143.04795999999996 31.71429 134.47218999999998 31.71429 L 15.527809999999988 31.71429 L 15.527809999999988 31.71429 C 6.952039999999988 31.71429 -1.2434497875801753e-14 24.762249999999998 -1.2434497875801753e-14 16.186479999999996 z" stroke-linecap="round" />
</g>
<g transform="matrix(0.89 -0.45 0.45 0.89 300.95 294.23)" id="GgVQYz2z-RiHPe4J2OkNX"  >
<path style="stroke: rgb(67,228,170); stroke-width: 0; stroke-dasharray: none; stroke-linecap: butt; stroke-dashoffset: 0; stroke-linejoin: miter; stroke-miterlimit: 4; fill: rgb(0,0,0); fill-rule: nonzero; opacity: 1;" vector-effect="non-scaling-stroke"  transform=" translate(-100, -18.5)" d="M 0 18.11658 C 0 13.31176 1.90871 8.70374 5.30622 5.30622 C 8.70374 1.9086999999999996 13.31176 0 18.11658 0 L 181.88342 0 L 181.88342 0 C 186.68824 0 191.29626 1.90871 194.69378 5.30622 C 198.0913 8.70374 200 13.31176 200 18.11658 L 200 18.883419999999997 L 200 18.883419999999997 C 200 28.888929999999995 191.88893 37 181.88342 37 L 18.11658 37 L 18.11658 37 C 8.11107 37 0 28.888930000000002 0 18.88342 z" stroke-linecap="round" />
</g>
<g transform="matrix(0.89 -0.45 0.45 0.89 300.95 360.08)" id="Fxj1Gq53bLTkzvsjO55CJ"  >
<path style="stroke: rgb(67,228,170); stroke-width: 0; stroke-dasharray: none; stroke-linecap: butt; stroke-dashoffset: 0; stroke-linejoin: miter; stroke-miterlimit: 4; fill: rgb(0,0,0); fill-rule: nonzero; opacity: 1;" vector-effect="non-scaling-stroke"  transform=" translate(-100, -18.5)" d="M 0 18.11658 C 0 13.31176 1.90871 8.70374 5.30622 5.30622 C 8.70374 1.9086999999999996 13.31176 0 18.11658 0 L 181.88342 0 L 181.88342 0 C 186.68824 0 191.29626 1.90871 194.69378 5.30622 C 198.0913 8.70374 200 13.31176 200 18.11658 L 200 18.883419999999997 L 200 18.883419999999997 C 200 28.888929999999995 191.88893 37 181.88342 37 L 18.11658 37 L 18.11658 37 C 8.11107 37 0 28.888930000000002 0 18.88342 z" stroke-linecap="round" />
</g>
</svg>